<svg id="Camada_1" data-name="Camada 1" xmlns="http://www.w3.org/2000/svg" viewBox="0 0 495 281.1"><defs><style>.cls-1{fill:#009cdf;}.cls-1,.cls-2,.cls-3,.cls-4,.cls-5{fill-rule:evenodd;}.cls-2{fill:#c10d19;}.cls-3{fill:#69a742;}.cls-4{fill:#db8f1b;}.cls-5,.cls-6{fill:#222220;}</style></defs><title>logo</title><path class="cls-1" d="M474.2,186.2a17.4,17.4,0,1,1,19.9-18.2,51.9,51.9,0,0,0-19.9,18.2Z" transform="translate(-140 -151.5)"/><path class="cls-2" d="M465.9,229a30,30,0,0,1-1.3,8.7c-26.4-.8-49.7-5.8-55-14.7a12.6,12.6,0,0,1,.6-2.2,28.5,28.5,0,0,1,55.7,8.3Zm-2.9,12.5A28.5,28.5,0,0,1,408.9,229c0-.3.1-.6.1-.9,8.9,7.9,30.3,12.5,54,13.5Z" transform="translate(-140 -151.5)"/><path class="cls-3" d="M618.2,180.7a28.5,28.5,0,0,1-28.5,28.5,27,27,0,0,1-8.8-1.4,128.3,128.3,0,0,0,15.6-13.5c9.2-9.5,15.3-19.6,16.8-29.3a28.1,28.1,0,0,1,4.8,15.8ZM576.7,206a28.5,28.5,0,1,1,33.1-45.5c-.1,10.1-6.2,20.8-16.1,31a125.9,125.9,0,0,1-17,14.5Z" transform="translate(-140 -151.5)"/><path class="cls-4" d="M568.3,216.3a49.2,49.2,0,0,1-90.2,25.4l8.2-.3c7.1-.4,14.2-1.1,21-2.2a149.9,149.9,0,0,0,18.9-4.2h.1a171.2,171.2,0,0,0,18.5-6.6,187,187,0,0,0,23.5-12Zm-92.5,21.4a49.2,49.2,0,0,1,43.4-72.4,49.2,49.2,0,0,1,49.1,46.2,183,183,0,0,1-25,13c-5.9,2.5-12,4.7-18.1,6.5h0a160.1,160.1,0,0,1-18.5,4c-6.6,1-13.5,1.7-20.6,2.2l-10.4.4Z" transform="translate(-140 -151.5)"/><path class="cls-5" d="M144.5,355.4a39.8,39.8,0,0,1-4.5-18.3c0-11.5,4.1-21.2,12.3-28.9A41.5,41.5,0,0,1,182,296.5h31.5V404H200.8V377.2H181.4a42.2,42.2,0,0,1-21.6-5.8,39.3,39.3,0,0,1-15.2-16.1Zm56.4-46H182.7c-8.3,0-15.2,2.6-20.8,7.8a26,26,0,0,0-8.5,19.9,26.6,26.6,0,0,0,8.7,20.3,29.6,29.6,0,0,0,21,8.1h17.8Z" transform="translate(-140 -151.5)"/><path class="cls-5" d="M222.9,342.9V296.7h12.9v45.6a24.1,24.1,0,0,0,6.4,17,21.4,21.4,0,0,0,16.4,7,21.8,21.8,0,0,0,16.6-6.9,23.7,23.7,0,0,0,6.5-17V296.7h13.2v80.6H281.7v-8.5a51.4,51.4,0,0,1-11.2,7,32,32,0,0,1-12.9,2.5,32.9,32.9,0,0,1-24.7-10.4,34.5,34.5,0,0,1-10.1-24.9Z" transform="translate(-140 -151.5)"/><path class="cls-5" d="M365.2,377.2V308.1H347.3a29.3,29.3,0,0,0-21,8.3,28.8,28.8,0,0,0-.1,40.9,28.9,28.9,0,0,0,20.7,8.2,27.6,27.6,0,0,0,13.5-3.5v13a44.9,44.9,0,0,1-14.2,2.7A41.4,41.4,0,0,1,316.5,366a38.7,38.7,0,0,1-12.3-29.1,40.2,40.2,0,0,1,4.6-18.7,39,39,0,0,1,15.2-16,42.2,42.2,0,0,1,21.6-5.7h32.1v80.7Z" transform="translate(-140 -151.5)"/><path class="cls-5" d="M385.1,275.1h12.8v21.4h28v12.1h-28v39.7a20.6,20.6,0,0,0,1.1,5.2,19.2,19.2,0,0,0,2.2,4.9c3.4,4.7,9.3,7.1,17.8,7.1h9.5v11.7H411.1a40.1,40.1,0,0,1-8.4-1.5A23.1,23.1,0,0,1,390,367a24.8,24.8,0,0,1-4.9-15Z" transform="translate(-140 -151.5)"/><path class="cls-5" d="M431,275.1h12.8v21.4h28v12.1h-28v39.7a18.1,18.1,0,0,0,1.1,5.2,19.8,19.8,0,0,0,2.1,4.9c3.4,4.7,9.3,7.1,17.8,7.1h9.5v11.7H457a40.3,40.3,0,0,1-8.4-1.5,23.3,23.3,0,0,1-12.8-8.9,25.1,25.1,0,0,1-4.9-15Z" transform="translate(-140 -151.5)"/><path class="cls-5" d="M522.5,378.4a43.7,43.7,0,0,1-30.7-12A38.5,38.5,0,0,1,478.9,337a38.9,38.9,0,0,1,12.8-29.5,43.3,43.3,0,0,1,30.7-12.1,43.9,43.9,0,0,1,30.9,12.1q13,12.1,13,29.5a38.4,38.4,0,0,1-13,29.4,44.2,44.2,0,0,1-30.9,12Zm0-70.9a30.8,30.8,0,0,0-21.9,8.6,27.7,27.7,0,0,0-9.2,21,27.3,27.3,0,0,0,9.3,20.7,31.1,31.1,0,0,0,21.8,8.4,31.6,31.6,0,0,0,21.9-8.4,28.1,28.1,0,0,0,.1-41.7,31.4,31.4,0,0,0-22.1-8.6Z" transform="translate(-140 -151.5)"/><path class="cls-5" d="M623.7,314.5a21.9,21.9,0,0,0-16.6-7,21.6,21.6,0,0,0-16.4,6.9,23.9,23.9,0,0,0-6.5,17v45.9H570.8V296.5h13.3v8.4a48.9,48.9,0,0,1,11.2-7,31.9,31.9,0,0,1,12.9-2.6q16.4,0,26.8,12.9Z" transform="translate(-140 -151.5)"/><path class="cls-6" d="M347.1,432.2V406.3h-6.7a11.2,11.2,0,0,0-7.9,3.1,10.8,10.8,0,0,0-.1,15.4,10.7,10.7,0,0,0,7.8,3.1,9.9,9.9,0,0,0,5.1-1.3v4.9a16.6,16.6,0,0,1-5.3,1,15.7,15.7,0,0,1-11.1-4.4,14.8,14.8,0,0,1-4.6-10.9,15.1,15.1,0,0,1,1.7-7,14.5,14.5,0,0,1,5.7-6,16.3,16.3,0,0,1,8.2-2.1h12v30.2Z" transform="translate(-140 -151.5)"/><path class="cls-6" d="M384,410.4c-2.7-3-5.8-4.4-9.1-4.4a10.3,10.3,0,0,0-7.7,3.3,10.7,10.7,0,0,0-3.3,7.8,11.1,11.1,0,0,0,11,10.9,11.2,11.2,0,0,0,6.2-1.8,10.2,10.2,0,0,0,3.9-5l3.3,3.2c-2.9,5.5-7.2,8.2-12.8,8.2a16.3,16.3,0,0,1-11.5-4.2,14.6,14.6,0,0,1-4.9-11.3,14.8,14.8,0,0,1,4.6-11.1,15.4,15.4,0,0,1,11.3-4.5c5.5,0,9.7,2.1,12.8,6.3Z" transform="translate(-140 -151.5)"/><path class="cls-6" d="M416,432.2V406.3h-6.8a11,11,0,0,0-7.8,3.1,10.7,10.7,0,0,0-.1,15.4,10.5,10.5,0,0,0,7.8,3.1,9.9,9.9,0,0,0,5.1-1.3v4.9a16.6,16.6,0,0,1-5.3,1,15.5,15.5,0,0,1-11.1-4.4,14.6,14.6,0,0,1-4.6-10.9,15.9,15.9,0,0,1,1.6-7,15.1,15.1,0,0,1,5.8-6,15.9,15.9,0,0,1,8.1-2.1h12.1v30.2Z" transform="translate(-140 -151.5)"/><path class="cls-6" d="M430.6,410.1a15,15,0,0,1,5.8-6,15.9,15.9,0,0,1,8.1-2.1h7.3v-8h4.7v38.2H444.7a15.7,15.7,0,0,1-11.2-4.3,14.4,14.4,0,0,1-4.6-10.8,15.9,15.9,0,0,1,1.6-7Zm21.2-3.7h-6.7a11,11,0,0,0-7.9,3.1,10.1,10.1,0,0,0-3.2,7.7,9.6,9.6,0,0,0,3.2,7.4,11.4,11.4,0,0,0,7.8,2.8h6.8Z" transform="translate(-140 -151.5)"/><path class="cls-6" d="M491.6,414.8c-.9-5.9-4.6-8.8-10.9-8.8a11.8,11.8,0,0,0-8.3,3.2,10.2,10.2,0,0,0-3.3,7.9,10.4,10.4,0,0,0,3.2,7.7,10.6,10.6,0,0,0,7.8,3.2,19.4,19.4,0,0,0,7.3-1.5c2.7-1.2,4.4-2.7,5.2-4.7l3.2,3.1a13.1,13.1,0,0,1-6.3,5.8,21.3,21.3,0,0,1-8.9,1.8,16.5,16.5,0,0,1-11.6-4.4,14.8,14.8,0,0,1-4.8-11.1,14.6,14.6,0,0,1,4.9-11.1,16.2,16.2,0,0,1,11.5-4.6c4.9,0,8.7,1.1,11.4,3.3s4.9,6.5,4.9,11.8c0,.7,0,1.3-.1,2H473.7v-3.9h17.9Z" transform="translate(-140 -151.5)"/><path class="cls-6" d="M531.4,432.2h-4.7V415a9,9,0,0,0-2.5-6.4,8.6,8.6,0,0,0-12.3,0,8.9,8.9,0,0,0-2.5,6.4v17.2h-4.9V402h4.9v3.1a22.6,22.6,0,0,1,4.2-2.6,11.8,11.8,0,0,1,4.8-1,12.4,12.4,0,0,1,6.3,1.6,13.8,13.8,0,0,1,4.6,4.4,14.6,14.6,0,0,1,5.1-4.3,12.9,12.9,0,0,1,15.5,2.2,13.2,13.2,0,0,1,3.7,9.4v17.5h-4.8V415a9,9,0,0,0-2.5-6.4,8,8,0,0,0-6.1-2.6,8.5,8.5,0,0,0-6.3,2.5,9,9,0,0,0-2.5,6.3Z" transform="translate(-140 -151.5)"/><path class="cls-6" d="M566.5,432.2h-4.9V401.5h4.9Zm-4.7-35.7a2.4,2.4,0,0,1,2.3-2.3,2.1,2.1,0,0,1,1.7.7,2.1,2.1,0,0,1,.7,1.6,2.4,2.4,0,0,1-2.4,2.4,2.1,2.1,0,0,1-1.6-.7,2.1,2.1,0,0,1-.7-1.7Z" transform="translate(-140 -151.5)"/><path class="cls-6" d="M597.6,432.2V406.3h-6.7a11.2,11.2,0,0,0-7.9,3.1,10.8,10.8,0,0,0-.1,15.4,10.7,10.7,0,0,0,7.8,3.1,10.3,10.3,0,0,0,5.1-1.3v4.9a17.2,17.2,0,0,1-5.3,1,15.8,15.8,0,0,1-11.2-4.4,14.8,14.8,0,0,1-4.6-10.9,15.1,15.1,0,0,1,1.7-7,14.9,14.9,0,0,1,5.7-6,16.3,16.3,0,0,1,8.2-2.1h12v30.2Z" transform="translate(-140 -151.5)"/></svg>