<svg xmlns="http://www.w3.org/2000/svg" viewBox="0 0 421.9 156.6"><title>logo10preto</title><g id="Camada_2" data-name="Camada 2"><g id="Camada_1-2" data-name="Camada 1"><path d="M288.3,154.3V38.7H271.5V6.2h49.4c0,1,0,1.9,0,2.9q0,57.6,0,115.2a4.9,4.9,0,0,1-2.9,5,102,102,0,0,0-27.5,22.5Z" style="fill:#c20d19"/><path d="M324.4,125.6V91.4c5.2,8.8,12.4,14.1,22.1,15s17.9-2.6,24.2-10.2c9.8-12,7.4-29.9-5-39.3s-30.8-7.9-41.1,9.4a19.8,19.8,0,0,1-.3-2.2c0-11.7,0-23.4-.1-35.1,0-2,.7-2.9,2.4-3.6,34.8-15.1,75.7,8.5,80.2,46.2a57.1,57.1,0,0,1-12.5,44,4.1,4.1,0,0,1-3.2,1.5c-22.8-4-44.7-1.4-65.7,8.4Z" style="fill:#c20d19"/><path d="M421.9,135.6c-6.5-2.4-12.9-5.3-19.5-7.1-34.5-9-65.4-1.7-92.4,21.5-5.9,5.1-6.3,5.3-14.9,4.4,13.2-15.1,29-25.4,47.8-30.6C370.9,116.3,397.3,120.4,421.9,135.6Z"/><path d="M371.2,135.9v15.7c-2.5.9-4.1.2-5.6-1.8s-5-6.3-8.1-10.2v12.2h-3V136.1c2.3-1,4-.3,5.5,1.7s4.9,6.3,7.9,10V135.9Z" style="fill:#c20d19"/><path d="M392.9,143.9c0,5.5-3.7,8.7-9.7,8.7s-9.7-3.5-9.6-8.9,3.6-8.4,9.9-8.4S392.9,138.4,392.9,143.9Zm-9.7,6c3.7.1,6.2-2.3,6.3-6a6.1,6.1,0,1,0-6.3,6Z" style="fill:#c20d19"/><path d="M409.4,140.7l-4-1.8a7.7,7.7,0,0,0-2.2-1c-1.9-.2-4.3-.6-4.7,1.9-.1.5,2.4,1.8,3.8,2.3s3.7.5,5.4,1.2a4.2,4.2,0,0,1,1.7,6.8c-2.7,3.3-11.6,3.1-14.1-.2a13.6,13.6,0,0,1-1.1-2.7c1.9-.4,3.2-.9,4.4,1.1s5.3,2.2,7,1,1.2-1.2,1.1-1.7a2.6,2.6,0,0,0-1.4-1.7c-2-.6-4-.9-6-1.3s-4.6-1.6-4.5-4.5,2.1-4.4,4.9-4.6a19.6,19.6,0,0,1,6.9.6c1.5.5,2.5,2.2,3.8,3.4Z" style="fill:#c20d19"/><path d="M352.4,151.8c-2.3.6-4,.4-4.8-2.1a2.8,2.8,0,0,0-2.2-1.5c-2.9.1-6.5-1.5-7.7,3.1-.2.6-2.2.6-4,1.1,2.5-5.6,4.6-10.4,6.8-15.2.9-2,4.3-2.1,5.2-.2C348.1,141.8,350.2,146.8,352.4,151.8Zm-9.3-13.3-2.6,6.9h5.4Z" style="fill:#c20d19"/><path d="M186.2,19.3A9.7,9.7,0,1,1,197.2,9.2a28.9,28.9,0,0,0-11.1,10.1Z" style="fill:#009de0;fill-rule:evenodd"/><path d="M181.5,43.2a16.7,16.7,0,0,1-.7,4.8c-14.7-.5-27.7-3.2-30.6-8.2a7,7,0,0,1,.3-1.2,15.9,15.9,0,0,1,31,4.6Zm-1.6,7a15.9,15.9,0,0,1-30.1-7c0-.2,0-.4,0-.5,4.9,4.4,16.9,6.9,30.1,7.5Z" style="fill:#c20d19;fill-rule:evenodd"/><path d="M266.4,16.3a15.9,15.9,0,0,1-15.9,15.9,15,15,0,0,1-4.9-.8,71.5,71.5,0,0,0,8.7-7.5c5.1-5.3,8.5-10.9,9.4-16.3a15.7,15.7,0,0,1,2.7,8.8ZM243.3,30.4A15.9,15.9,0,1,1,261.7,5c-.1,5.6-3.5,11.6-9,17.3a70.1,70.1,0,0,1-9.5,8.1Z" style="fill:#6aa842;fill-rule:evenodd"/><path d="M238.6,36.1a27.4,27.4,0,0,1-50.2,14.1l4.6-.2c4-.2,7.9-.6,11.7-1.2a83.5,83.5,0,0,0,10.5-2.3h0a95.4,95.4,0,0,0,10.3-3.7,104.2,104.2,0,0,0,13.1-6.7ZM187,48.1A27.4,27.4,0,0,1,211.2,7.7a27.4,27.4,0,0,1,27.3,25.8,102,102,0,0,1-13.9,7.3c-3.3,1.4-6.7,2.6-10.1,3.6h0a89.2,89.2,0,0,1-10.3,2.3c-3.7.6-7.5,1-11.5,1.2l-5.8.2Z" style="fill:#dc911b;fill-rule:evenodd"/><path d="M2.5,113.6A22.2,22.2,0,0,1,0,103.4,21.2,21.2,0,0,1,6.9,87.3a23.1,23.1,0,0,1,16.5-6.5H40.9v59.9h-7V125.7H23a23.5,23.5,0,0,1-12-3.2,21.9,21.9,0,0,1-8.5-9ZM33.9,88H23.8a16.4,16.4,0,0,0-11.6,4.3,14.5,14.5,0,0,0-4.7,11.1,14.8,14.8,0,0,0,4.8,11.3A16.5,16.5,0,0,0,24,119.2h9.9Z" style="fill:#222220;fill-rule:evenodd"/><path d="M46.2,106.7V80.9h7.2v25.4a13.4,13.4,0,0,0,3.6,9.5,11.9,11.9,0,0,0,9.1,3.9,12.1,12.1,0,0,0,9.2-3.8,13.2,13.2,0,0,0,3.6-9.4V80.9h7.3v44.9H78.9V121a28.6,28.6,0,0,1-6.2,3.9,17.8,17.8,0,0,1-7.2,1.4,18.3,18.3,0,0,1-13.7-5.8,19.2,19.2,0,0,1-5.6-13.9Z" style="fill:#222220;fill-rule:evenodd"/><path d="M125.4,125.7V87.2h-10a16.3,16.3,0,0,0-11.7,4.6,16,16,0,0,0-.1,22.8,16.1,16.1,0,0,0,11.6,4.6,15.4,15.4,0,0,0,7.5-1.9v7.2a25,25,0,0,1-7.9,1.5,23.1,23.1,0,0,1-16.6-6.6,21.6,21.6,0,0,1-6.9-16.2A22.4,22.4,0,0,1,94,92.9a21.8,21.8,0,0,1,8.5-8.9,23.5,23.5,0,0,1,12.1-3.2h17.9v45Z" style="fill:#222220;fill-rule:evenodd"/><path d="M136.5,68.9h7.1V80.8h15.6v6.7H143.6v22.1a11.5,11.5,0,0,0,.6,2.9,10.7,10.7,0,0,0,1.2,2.7c1.9,2.6,5.2,3.9,9.9,3.9h5.3v6.5H151a22.4,22.4,0,0,1-4.7-.8,12.9,12.9,0,0,1-7.1-4.9,13.8,13.8,0,0,1-2.7-8.4Z" style="fill:#222220;fill-rule:evenodd"/><path d="M162.1,68.9h7.1V80.8h15.6v6.7H169.2v22.1a10.1,10.1,0,0,0,.6,2.9,11,11,0,0,0,1.2,2.7c1.9,2.6,5.2,3.9,9.9,3.9h5.3v6.5h-9.6a22.5,22.5,0,0,1-4.7-.8,13,13,0,0,1-7.1-4.9,14,14,0,0,1-2.7-8.4Z" style="fill:#222220;fill-rule:evenodd"/><path d="M213.1,126.4a24.3,24.3,0,0,1-17.1-6.7,21.4,21.4,0,0,1-7.1-16.4,21.7,21.7,0,0,1,7.1-16.4,24.1,24.1,0,0,1,17.1-6.8,24.4,24.4,0,0,1,17.2,6.8,21.6,21.6,0,0,1,7.3,16.4,21.4,21.4,0,0,1-7.3,16.4,24.6,24.6,0,0,1-17.2,6.7Zm0-39.5a17.1,17.1,0,0,0-12.2,4.8,15.4,15.4,0,0,0-5.1,11.7,15.2,15.2,0,0,0,5.2,11.6,17.4,17.4,0,0,0,12.2,4.7,17.6,17.6,0,0,0,12.2-4.7,15.6,15.6,0,0,0,.1-23.3,17.5,17.5,0,0,0-12.3-4.8Z" style="fill:#222220;fill-rule:evenodd"/><path d="M269.5,90.8a12.2,12.2,0,0,0-9.3-3.9,12,12,0,0,0-9.2,3.8,13.3,13.3,0,0,0-3.6,9.5v25.5H240v-45h7.4v4.7a27.2,27.2,0,0,1,6.2-3.9,17.8,17.8,0,0,1,7.2-1.4,18.3,18.3,0,0,1,14.9,7.2Z" style="fill:#222220;fill-rule:evenodd"/><path d="M115.4,156.4V141.9h-3.7a6.2,6.2,0,0,0-4.4,1.7,6,6,0,0,0,0,8.6,6,6,0,0,0,4.3,1.7,5.5,5.5,0,0,0,2.8-.7v2.7a9.2,9.2,0,0,1-3,.6,8.8,8.8,0,0,1-6.2-2.4,8.3,8.3,0,0,1-2.6-6.1,8.4,8.4,0,0,1,1-3.9,8.1,8.1,0,0,1,3.2-3.3,9.1,9.1,0,0,1,4.5-1.2H118v16.8Z" style="fill:#222220"/><path d="M135.9,144.2a6.7,6.7,0,0,0-5.1-2.5,5.7,5.7,0,0,0-4.3,1.8,5.9,5.9,0,0,0-1.8,4.4,6.2,6.2,0,0,0,6.1,6.1,6.2,6.2,0,0,0,3.5-1,5.7,5.7,0,0,0,2.2-2.8l1.8,1.8c-1.6,3.1-4,4.6-7.1,4.6a9.1,9.1,0,0,1-6.4-2.4,8.1,8.1,0,0,1-2.7-6.3,8.2,8.2,0,0,1,2.6-6.2,8.6,8.6,0,0,1,6.3-2.5,8.2,8.2,0,0,1,7.1,3.5Z" style="fill:#222220"/><path d="M153.7,156.4V141.9H150a6.1,6.1,0,0,0-4.4,1.7,6,6,0,0,0,0,8.6,5.9,5.9,0,0,0,4.3,1.7,5.5,5.5,0,0,0,2.8-.7v2.7a9.2,9.2,0,0,1-3,.6,8.7,8.7,0,0,1-6.2-2.4,8.1,8.1,0,0,1-2.6-6.1,8.8,8.8,0,0,1,.9-3.9,8.4,8.4,0,0,1,3.2-3.3,8.9,8.9,0,0,1,4.5-1.2h6.7v16.8Z" style="fill:#222220"/><path d="M161.9,144a8.4,8.4,0,0,1,3.2-3.3,8.8,8.8,0,0,1,4.5-1.2h4.1v-4.4h2.6v21.3h-6.6a8.8,8.8,0,0,1-6.2-2.4,8,8,0,0,1-2.5-6,8.8,8.8,0,0,1,.9-3.9Zm11.8-2.1H170a6.1,6.1,0,0,0-4.4,1.7,5.6,5.6,0,0,0-1.8,4.3,5.3,5.3,0,0,0,1.8,4.1,6.4,6.4,0,0,0,4.4,1.6h3.8Z" style="fill:#222220"/><path d="M195.9,146.7c-.5-3.3-2.5-4.9-6.1-4.9a6.6,6.6,0,0,0-4.6,1.8,5.7,5.7,0,0,0-1.9,4.4,5.8,5.8,0,0,0,1.8,4.3,5.9,5.9,0,0,0,4.3,1.8,10.8,10.8,0,0,0,4.1-.8,5,5,0,0,0,2.9-2.6l1.8,1.7a7.3,7.3,0,0,1-3.5,3.2,11.9,11.9,0,0,1-4.9,1,9.2,9.2,0,0,1-6.4-2.5,8.2,8.2,0,0,1-2.7-6.2,8.1,8.1,0,0,1,2.7-6.2,9.1,9.1,0,0,1,6.4-2.5,10,10,0,0,1,6.3,1.8c1.8,1.4,2.7,3.6,2.7,6.6,0,.4,0,.7,0,1.1H185.9v-2.1h10Z" style="fill:#222220"/><path d="M218,156.4h-2.6v-9.6a5,5,0,0,0-1.4-3.6,4.8,4.8,0,0,0-6.9,0,4.9,4.9,0,0,0-1.4,3.6v9.6H203V139.5h2.8v1.7a12.6,12.6,0,0,1,2.4-1.4,6.6,6.6,0,0,1,2.7-.5,6.9,6.9,0,0,1,3.5.9,7.7,7.7,0,0,1,2.6,2.4,8.1,8.1,0,0,1,2.8-2.4,7.2,7.2,0,0,1,8.6,1.2,7.3,7.3,0,0,1,2.1,5.2v9.7h-2.7v-9.6a5,5,0,0,0-1.4-3.6,4.4,4.4,0,0,0-3.4-1.4,4.7,4.7,0,0,0-3.5,1.4,5,5,0,0,0-1.4,3.5Z" style="fill:#222220"/><path d="M237.6,156.4h-2.7V139.3h2.7Zm-2.6-19.9a1.3,1.3,0,0,1,1.3-1.3,1.2,1.2,0,0,1,1,.4,1.1,1.1,0,0,1,.4.9,1.3,1.3,0,0,1-1.3,1.3,1.2,1.2,0,0,1-.9-.4,1.2,1.2,0,0,1-.4-1Z" style="fill:#222220"/><path d="M254.9,156.4V141.9h-3.7a6.2,6.2,0,0,0-4.4,1.7,6,6,0,0,0,0,8.6,6,6,0,0,0,4.3,1.7,5.7,5.7,0,0,0,2.9-.7v2.7a9.6,9.6,0,0,1-3,.6,8.8,8.8,0,0,1-6.2-2.4,8.3,8.3,0,0,1-2.6-6.1,8.4,8.4,0,0,1,1-3.9,8.3,8.3,0,0,1,3.2-3.3,9.1,9.1,0,0,1,4.5-1.2h6.7v16.8Z" style="fill:#222220"/></g></g></svg>