<svg xmlns="http://www.w3.org/2000/svg" viewBox="0 0 294.7 65.9"><title>logo1</title><g id="Camada_2" data-name="Camada 2"><g id="Camada_1-2" data-name="Camada 1"><path d="M234.4,16.6A7.3,7.3,0,1,1,242.7,9a21.7,21.7,0,0,0-8.3,7.6Z" style="fill:#009de0;fill-rule:evenodd"/><path d="M230.9,34.6a12.5,12.5,0,0,1-.6,3.6c-11-.3-20.8-2.4-23-6.2a5.3,5.3,0,0,1,.2-.9,11.9,11.9,0,0,1,23.3,3.5Zm-1.2,5.2a11.9,11.9,0,0,1-22.6-5.2c0-.1,0-.3,0-.4,3.7,3.3,12.7,5.2,22.6,5.6Z" style="fill:#c20d19;fill-rule:evenodd"/><path d="M294.7,14.3a11.9,11.9,0,0,1-11.9,11.9,11.3,11.3,0,0,1-3.7-.6,53.7,53.7,0,0,0,6.5-5.7c3.8-4,6.4-8.2,7-12.3a11.8,11.8,0,0,1,2,6.6ZM277.3,24.9A11.9,11.9,0,1,1,291.2,5.9c-.1,4.2-2.6,8.7-6.7,13a52.7,52.7,0,0,1-7.1,6.1Z" style="fill:#6aa842;fill-rule:evenodd"/><path d="M273.8,29.2A20.6,20.6,0,0,1,236,39.9h3.4c3-.2,6-.5,8.8-.9a62.8,62.8,0,0,0,7.9-1.7h0a71.7,71.7,0,0,0,7.7-2.8,78.3,78.3,0,0,0,9.8-5Zm-38.7,9A20.6,20.6,0,0,1,253.2,7.9a20.6,20.6,0,0,1,20.5,19.4,76.6,76.6,0,0,1-10.5,5.5c-2.5,1-5,2-7.6,2.7h0a67,67,0,0,1-7.7,1.7c-2.8.4-5.7.7-8.6.9l-4.3.2Z" style="fill:#dc911b;fill-rule:evenodd"/><path d="M1.9,33.6A16.7,16.7,0,0,1,0,26,15.9,15.9,0,0,1,5.2,13.8,17.4,17.4,0,0,1,17.6,8.9H30.8V54H25.5V42.7H17.3a17.7,17.7,0,0,1-9.1-2.4,16.5,16.5,0,0,1-6.4-6.7ZM25.5,14.4H17.9a12.3,12.3,0,0,0-8.7,3.3A10.9,10.9,0,0,0,5.6,26a11.1,11.1,0,0,0,3.6,8.5A12.4,12.4,0,0,0,18,37.8h7.4Z" style="fill:#fff;fill-rule:evenodd"/><path d="M34.7,28.4V9h5.4V28.1a10.1,10.1,0,0,0,2.7,7.1,9,9,0,0,0,6.9,2.9,9.1,9.1,0,0,0,6.9-2.9,9.9,9.9,0,0,0,2.7-7.1V9h5.5V42.7H59.3V39.2a21.5,21.5,0,0,1-4.7,2.9,13.4,13.4,0,0,1-5.4,1.1,13.8,13.8,0,0,1-10.3-4.3,14.4,14.4,0,0,1-4.2-10.4Z" style="fill:#fff;fill-rule:evenodd"/><path d="M94.3,42.7V13.8H86.8A12.3,12.3,0,0,0,78,17.3a11.4,11.4,0,0,0-3.6,8.6,11.3,11.3,0,0,0,3.5,8.6,12.1,12.1,0,0,0,8.7,3.4,11.6,11.6,0,0,0,5.7-1.5v5.4A18.8,18.8,0,0,1,86.3,43,17.3,17.3,0,0,1,73.9,38a16.2,16.2,0,0,1-5.2-12.2A16.8,16.8,0,0,1,70.6,18,16.3,16.3,0,0,1,77,11.3a17.7,17.7,0,0,1,9.1-2.4H99.5V42.7Z" style="fill:#fff;fill-rule:evenodd"/><path d="M102.6,0H108V8.9h11.7V14H108V30.6a8.6,8.6,0,0,0,.5,2.2,8,8,0,0,0,.9,2c1.4,2,3.9,3,7.4,3h4v4.9h-7.2a16.8,16.8,0,0,1-3.5-.6,9.7,9.7,0,0,1-5.3-3.7,10.4,10.4,0,0,1-2.1-6.3Z" style="fill:#fff;fill-rule:evenodd"/><path d="M121.8,0h5.3V8.9h11.7V14H127.2V30.6a7.6,7.6,0,0,0,.5,2.2,8.3,8.3,0,0,0,.9,2c1.4,2,3.9,3,7.5,3h4v4.9h-7.2a16.9,16.9,0,0,1-3.5-.6,9.7,9.7,0,0,1-5.3-3.7,10.5,10.5,0,0,1-2-6.3Z" style="fill:#fff;fill-rule:evenodd"/><path d="M160.1,43.2a18.3,18.3,0,0,1-12.9-5,16.1,16.1,0,0,1-5.4-12.3,16.3,16.3,0,0,1,5.4-12.3,18.1,18.1,0,0,1,12.9-5.1,18.4,18.4,0,0,1,12.9,5.1,16.3,16.3,0,0,1,5.5,12.3,16.1,16.1,0,0,1-5.5,12.3,18.5,18.5,0,0,1-12.9,5Zm0-29.7a12.9,12.9,0,0,0-9.2,3.6,11.6,11.6,0,0,0-3.8,8.8,11.4,11.4,0,0,0,3.9,8.7,13,13,0,0,0,9.1,3.5,13.2,13.2,0,0,0,9.2-3.5,11.5,11.5,0,0,0,3.9-8.7,11.4,11.4,0,0,0-3.9-8.8,13.1,13.1,0,0,0-9.2-3.6Z" style="fill:#fff;fill-rule:evenodd"/><path d="M202.5,16.5a9.2,9.2,0,0,0-7-2.9,9,9,0,0,0-6.9,2.9,10,10,0,0,0-2.7,7.1V42.7h-5.6V8.9h5.6v3.5a20.5,20.5,0,0,1,4.7-2.9A13.4,13.4,0,0,1,196,8.5a13.8,13.8,0,0,1,11.2,5.4Z" style="fill:#fff;fill-rule:evenodd"/><path d="M86.7,65.7V54.9H83.9a4.7,4.7,0,0,0-3.3,1.3,4.5,4.5,0,0,0,0,6.4,4.5,4.5,0,0,0,3.3,1.3,4.1,4.1,0,0,0,2.1-.6v2a6.9,6.9,0,0,1-2.2.4A6.6,6.6,0,0,1,79,64a6.2,6.2,0,0,1-1.9-4.6,6.3,6.3,0,0,1,.7-2.9A6.1,6.1,0,0,1,80.2,54a6.8,6.8,0,0,1,3.4-.9h5V65.7Z" style="fill:#fff"/><path d="M102.2,56.6a5.1,5.1,0,0,0-3.8-1.9,4.3,4.3,0,0,0-3.2,1.4,4.5,4.5,0,0,0-1.4,3.3A4.7,4.7,0,0,0,98.3,64a4.7,4.7,0,0,0,2.6-.8,4.3,4.3,0,0,0,1.6-2.1l1.4,1.3a5.8,5.8,0,0,1-5.3,3.4,6.8,6.8,0,0,1-4.8-1.8,6.1,6.1,0,0,1-2-4.7,6.2,6.2,0,0,1,1.9-4.7,6.4,6.4,0,0,1,4.7-1.9,6.2,6.2,0,0,1,5.3,2.6Z" style="fill:#fff"/><path d="M115.5,65.7V54.9h-2.8a4.6,4.6,0,0,0-3.3,1.3,4.5,4.5,0,0,0,0,6.4,4.4,4.4,0,0,0,3.3,1.3,4.1,4.1,0,0,0,2.1-.6v2a6.9,6.9,0,0,1-2.2.4,6.5,6.5,0,0,1-4.7-1.8,6.1,6.1,0,0,1-1.9-4.6,6.6,6.6,0,0,1,.7-2.9A6.3,6.3,0,0,1,109,54a6.7,6.7,0,0,1,3.4-.9h5.1V65.7Z" style="fill:#fff"/><path d="M121.7,56.5a6.3,6.3,0,0,1,2.4-2.5,6.6,6.6,0,0,1,3.4-.9h3.1V49.8h2v16h-4.9a6.6,6.6,0,0,1-4.7-1.8,6,6,0,0,1-1.9-4.5,6.6,6.6,0,0,1,.7-2.9Zm8.9-1.6h-2.8a4.6,4.6,0,0,0-3.3,1.3,4.2,4.2,0,0,0-1.3,3.2,4,4,0,0,0,1.3,3.1,4.8,4.8,0,0,0,3.3,1.2h2.9Z" style="fill:#fff"/><path d="M147.2,58.5c-.4-2.5-1.9-3.7-4.6-3.7a4.9,4.9,0,0,0-3.5,1.3,4.3,4.3,0,0,0-1.4,3.3,4.3,4.3,0,0,0,1.3,3.2,4.4,4.4,0,0,0,3.3,1.4,8.1,8.1,0,0,0,3.1-.6,3.7,3.7,0,0,0,2.2-2l1.4,1.3a5.5,5.5,0,0,1-2.6,2.4,8.9,8.9,0,0,1-3.7.8,6.9,6.9,0,0,1-4.8-1.9,6.2,6.2,0,0,1-2-4.6,6.1,6.1,0,0,1,2-4.6,6.8,6.8,0,0,1,4.8-1.9,7.5,7.5,0,0,1,4.8,1.4,5.9,5.9,0,0,1,2,5c0,.3,0,.6,0,.8h-9.7V58.5h7.5Z" style="fill:#fff"/><path d="M163.9,65.7h-2V58.5a3.8,3.8,0,0,0-1-2.7,3.6,3.6,0,0,0-5.2,0,3.7,3.7,0,0,0-1,2.7v7.2h-2.1V53.1h2.1v1.3l1.8-1.1a4.9,4.9,0,0,1,2-.4,5.2,5.2,0,0,1,2.6.7,5.8,5.8,0,0,1,1.9,1.8,6.1,6.1,0,0,1,2.1-1.8,5.4,5.4,0,0,1,6.5.9,5.5,5.5,0,0,1,1.6,3.9v7.3h-2V58.5a3.8,3.8,0,0,0-1-2.7,3.3,3.3,0,0,0-2.6-1.1,3.6,3.6,0,0,0-2.6,1.1,3.8,3.8,0,0,0-1.1,2.6Z" style="fill:#fff"/><path d="M178.5,65.7h-2.1V52.9h2.1Zm-2-15a1,1,0,0,1,1-1,.9.9,0,0,1,.7.3.9.9,0,0,1,.3.7,1,1,0,0,1-1,1,.9.9,0,0,1-.7-.3.9.9,0,0,1-.3-.7Z" style="fill:#fff"/><path d="M191.6,65.7V54.9h-2.8a4.7,4.7,0,0,0-3.3,1.3,4.5,4.5,0,0,0,0,6.4,4.5,4.5,0,0,0,3.3,1.3,4.3,4.3,0,0,0,2.1-.6v2a7.2,7.2,0,0,1-2.2.4,6.6,6.6,0,0,1-4.7-1.8,6.2,6.2,0,0,1-1.9-4.6,6.3,6.3,0,0,1,.7-2.9,6.2,6.2,0,0,1,2.4-2.5,6.8,6.8,0,0,1,3.4-.9h5V65.7Z" style="fill:#fff"/></g></g></svg>